<svg width="50" height="54" viewBox="0 0 50 54" fill="none" xmlns="http://www.w3.org/2000/svg">
<path fill-rule="evenodd" clip-rule="evenodd" d="M16.6667 16.1493C16.6667 13.8471 17.5446 11.6391 19.1074 10.0112C20.6702 8.38331 22.7899 7.46875 25 7.46875C27.2101 7.46875 29.3298 8.38331 30.8926 10.0112C32.4554 11.6391 33.3333 13.8471 33.3333 16.1493C33.3333 18.4515 32.4554 20.6595 30.8926 22.2874C29.3298 23.9153 27.2101 24.8299 25 24.8299C22.7899 24.8299 20.6702 23.9153 19.1074 22.2874C17.5446 20.6595 16.6667 18.4515 16.6667 16.1493ZM16.6667 29.1701C13.904 29.1701 11.2545 30.3133 9.30097 32.3482C7.34747 34.3831 6.25 37.143 6.25 40.0208C6.25 41.7475 6.90848 43.4035 8.08058 44.6244C9.25269 45.8453 10.8424 46.5312 12.5 46.5312H37.5C39.1576 46.5312 40.7473 45.8453 41.9194 44.6244C43.0915 43.4035 43.75 41.7475 43.75 40.0208C43.75 37.143 42.6525 34.3831 40.699 32.3482C38.7455 30.3133 36.096 29.1701 33.3333 29.1701H16.6667Z" fill="#79C9DB"/>
</svg>
